Title:
Blondie

Country:
Sweden, 2012

Language:
Swedish

Subtitle:
English

Director:

Jesper Ganslandt

Writer:
Jesper Ganslandt

Stars:
Carolina Gynning, Helena af Sandeberg, Alexandra Dahlstrom

Synopsis:
Three sisters, all adrift and in crisis, reunite at their childhood home as their domineering mother arranges her big birthday party. The festivities soon come to an end, repressed conflicts rise to the surface. Old wounds are opened and a new family is born. 

Imdb: 
http://www.imdb.com/title/tt2287661

Trailer: 
http://www.moviezine.se/film/blondie


Media Info:

General
Complete name                            : Blondie.2012.BRRip.XviD.AC3.HORiZON-ArtSubs
Format                                   : AVI
Format/Info                              : Audio Video Interleave
Format profile                           : OpenDML
File size                                : 1.33 GiB
Duration                                 : 1h 27mn
Overall bit rate                         : 2 160 Kbps
Writing application                      : Lavf52.94.0

Video
ID                                       : 0
Format                                   : MPEG-4 Visual
Format profile                           : Simple@L3
Format settings, BVOP                    : No
Format settings, QPel                    : No
Format settings, GMC                     : No warppoints
Format settings, Matrix                  : Default (H.263)
Codec ID                                 : XVID
Codec ID/Hint                            : XviD
Duration                                 : 1h 27mn
Bit rate                                 : 1 923 Kbps
Width                                    : 1 280 pixels
Height                                   : 544 pixels
Display aspect ratio                     : 2.35:1
Frame rate                               : 24.000 fps
Color space                              : YUV
Chroma subsampling                       : 4:2:0
Bit depth                                : 8 bits
Scan type                                : Progressive
Compression mode                         : Lossy
Bits/(Pixel*Frame)                       : 0.115
Stream size                              : 1.18 GiB (89%)
Writing library                          : XviD 1.2.1 (UTC 2008-12-04)

Audio
ID                                       : 1
Format                                   : AC-3
Format/Info                              : Audio Coding 3
Mode extension                           : CM (complete main)
Format settings, Endianness              : Big
Codec ID                                 : 2000
Duration                                 : 1h 27mn
Bit rate mode                            : Constant
Bit rate                                 : 224 Kbps
Channel(s)                               : 2 channels
Channel positions                        : Front: L R
Sampling rate                            : 48.0 KHz
Bit depth                                : 16 bits
Compression mode                         : Lossy
Stream size                              : 141 MiB (10%)
Alignment                                : Aligned on interleaves
Interleave, duration                     : 32 ms (0.77 video frame)
Interleave, preload duration             : 32 ms

